<svg xmlns="http://www.w3.org/2000/svg" x="0px" y="0px" width="100" height="100" viewBox="0 0 100 100">
<path d="M 10.294922 22 C 9.2479219 22 8.3984375 22.849484 8.3984375 23.896484 L 8.3984375 25.289062 C 8.3984375 26.278063 9.1585313 27.101688 10.144531 27.179688 C 11.489531 27.286687 12.536859 27.512563 13.255859 27.851562 C 13.935859 28.172563 14.490172 28.601063 14.951172 29.164062 C 15.014172 29.241063 15.103938 29.34475 15.210938 29.46875 C 15.730937 30.06975 16.700453 31.189187 17.439453 32.867188 C 17.448453 32.888188 17.45875 32.910641 17.46875 32.931641 L 38.832031 76.933594 C 39.150031 77.585594 39.813063 78 40.539062 78 L 41.955078 78 C 42.679078 78 43.339203 77.5875 43.658203 76.9375 L 52.056641 59.798828 L 59.71875 76.880859 C 60.02475 77.561859 60.700266 78 61.447266 78 L 62.863281 78 C 63.621281 78 64.306469 77.549516 64.605469 76.853516 L 83.283203 33.414062 C 84.260203 31.047062 85.740547 29.396828 86.810547 28.423828 C 87.460547 27.853828 88.554109 27.418297 90.037109 27.154297 C 90.942109 26.993297 91.601562 26.206109 91.601562 25.287109 L 91.601562 23.894531 C 91.600563 22.848531 90.752078 22 89.705078 22 L 73.707031 22 C 73.273031 22 72.873688 22.145625 72.554688 22.390625 C 72.234688 22.145625 71.834391 22 71.400391 22 L 55.816406 22 C 55.406406 22 55.02875 22.130562 54.71875 22.351562 C 54.40975 22.130562 54.028141 22 53.619141 22 L 33.244141 22 C 32.843141 22 32.470062 22.125891 32.164062 22.337891 C 31.857062 22.125891 31.484984 22 31.083984 22 L 10.294922 22 z M 10.294922 23.894531 L 31.082031 23.894531 L 31.082031 25.287109 C 28.684031 25.513109 27.540172 25.914188 26.826172 26.492188 C 26.112172 27.069187 25.755859 27.811844 25.755859 28.714844 C 25.755859 29.969844 26.342625 31.925937 27.515625 34.585938 L 43.292969 64.509766 L 50.259766 51.166016 L 41.710938 32.101562 C 40.715938 29.843563 39.361125 28.462937 38.953125 27.960938 C 38.315125 27.182938 37.531609 26.574766 36.599609 26.134766 C 35.668609 25.695766 34.824188 25.413109 33.242188 25.287109 L 33.242188 23.894531 L 53.619141 23.894531 L 53.619141 25.287109 C 51.221141 25.513109 50.077281 25.914187 49.363281 26.492188 C 48.649281 27.069187 48.292969 27.811844 48.292969 28.714844 C 48.292969 29.969844 48.879734 31.925937 50.052734 34.585938 L 54.265625 43.496094 L 58.720703 34.962891 C 59.919703 32.051891 60.914062 30.031344 60.914062 28.902344 C 60.914062 28.174344 60.544688 27.4775 59.804688 26.8125 C 59.064687 26.1475 58.227797 25.678344 56.466797 25.402344 C 56.338797 25.377344 56.121453 25.339062 55.814453 25.289062 L 55.814453 23.896484 L 71.398438 23.896484 L 71.398438 25.289062 C 69.561437 25.615063 68.171516 26.193484 67.228516 27.021484 C 65.876516 28.251484 64.280375 30.133969 63.234375 32.667969 L 56.064453 47.304688 L 64.201172 64.511719 L 77.023438 34.962891 C 78.222437 32.051891 79.216797 30.031344 79.216797 28.902344 C 79.216797 28.174344 78.847422 27.479453 78.107422 26.814453 C 77.367422 26.149453 76.116469 25.678344 74.355469 25.402344 C 74.227469 25.377344 74.012078 25.339062 73.705078 25.289062 L 73.705078 23.896484 L 89.705078 23.896484 L 89.705078 25.289062 C 87.868078 25.615063 86.476203 26.193484 85.533203 27.021484 C 84.181203 28.251484 82.587016 30.133969 81.541016 32.667969 L 62.863281 76.103516 L 61.447266 76.103516 L 52.130859 55.335938 L 41.955078 76.103516 L 40.539062 76.103516 L 19.173828 32.101562 C 18.178828 29.843563 16.825969 28.462937 16.417969 27.960938 C 15.779969 27.182938 14.996453 26.574766 14.064453 26.134766 C 13.133453 25.695766 11.876922 25.413109 10.294922 25.287109 L 10.294922 23.894531 z M 72.556641 26.792969 C 72.797641 26.977969 73.085344 27.106203 73.402344 27.158203 C 73.679344 27.204203 73.876188 27.236766 73.992188 27.259766 C 74.017188 27.264766 74.041406 27.269437 74.066406 27.273438 C 75.880406 27.558438 76.58575 27.990656 76.84375 28.222656 C 77.13975 28.488656 77.324219 28.748391 77.324219 28.900391 C 77.324219 29.393391 76.640109 31.002875 76.037109 32.421875 C 75.798109 32.983875 75.541438 33.588281 75.273438 34.238281 L 64.128906 59.919922 L 58.169922 47.318359 L 64.939453 33.5 C 64.957453 33.464 64.975234 33.426672 64.990234 33.388672 C 65.956234 31.046672 67.434859 29.395875 68.505859 28.421875 C 69.155859 27.851875 70.251375 27.418297 71.734375 27.154297 C 72.042375 27.099297 72.321641 26.972969 72.556641 26.792969 z M 54.71875 26.833984 C 54.94875 26.996984 55.215766 27.112156 55.509766 27.160156 C 55.787766 27.206156 55.983609 27.238719 56.099609 27.261719 C 56.124609 27.266719 56.148828 27.271391 56.173828 27.275391 C 57.639828 27.505391 58.111109 27.841609 58.537109 28.224609 C 58.833109 28.490609 59.019531 28.750344 59.019531 28.902344 C 59.019531 29.395344 58.335422 31.005828 57.732422 32.423828 C 57.503422 32.962828 57.257953 33.541156 57.001953 34.160156 L 54.349609 39.238281 L 51.777344 33.798828 C 50.395344 30.660828 50.1875 29.267844 50.1875 28.714844 C 50.1875 28.387844 50.287688 28.18475 50.554688 27.96875 C 51.012687 27.59875 52.073875 27.338781 53.796875 27.175781 C 54.139875 27.143781 54.45475 27.020984 54.71875 26.833984 z M 32.162109 26.847656 C 32.429109 27.032656 32.74875 27.150734 33.09375 27.177734 C 34.38775 27.280734 35.017016 27.484609 35.791016 27.849609 C 36.471016 28.170609 37.025328 28.599109 37.486328 29.162109 C 37.549328 29.239109 37.639094 29.34475 37.746094 29.46875 C 38.266094 30.06975 39.235609 31.187234 39.974609 32.865234 L 48.154297 51.103516 L 43.285156 60.429688 L 29.224609 33.761719 C 27.856609 30.649719 27.652344 29.264844 27.652344 28.714844 C 27.652344 28.387844 27.751531 28.18475 28.019531 27.96875 C 28.477531 27.59875 29.538719 27.338781 31.261719 27.175781 C 31.596719 27.143781 31.902109 27.027656 32.162109 26.847656 z M 22.369141 33.384766 C 22.304203 33.388609 22.239984 33.404797 22.177734 33.435547 C 21.929734 33.557547 21.826219 33.858469 21.949219 34.105469 L 23.818359 37.896484 C 23.905359 38.072484 24.082578 38.175781 24.267578 38.175781 C 24.341578 38.175781 24.417281 38.159 24.488281 38.125 C 24.736281 38.003 24.837844 37.702078 24.714844 37.455078 L 22.845703 33.664062 C 22.754953 33.477312 22.563953 33.373234 22.369141 33.384766 z M 25.171875 39.072266 C 25.107016 39.076109 25.042719 39.092297 24.980469 39.123047 C 24.732469 39.245047 24.630906 39.545969 24.753906 39.792969 L 38.539062 67.759766 C 38.626063 67.935766 38.803281 68.037109 38.988281 68.037109 C 39.062281 68.037109 39.137031 68.020328 39.207031 67.986328 C 39.455031 67.864328 39.558547 67.565359 39.435547 67.318359 L 25.648438 39.351562 C 25.556937 39.164812 25.366453 39.060734 25.171875 39.072266 z"></path>
</svg>
